<?xml version="1.0" encoding="UTF-8" standalone="no"?>
<!DOCTYPE svg PUBLIC "-//W3C//DTD SVG 1.1//EN" "http://www.w3.org/Graphics/SVG/1.1/DTD/svg11.dtd">
<!-- Created with Vectornator (http://vectornator.io/) -->
<svg height="100%" stroke-miterlimit="10" style="fill-rule:nonzero;clip-rule:evenodd;stroke-linecap:round;stroke-linejoin:round;" version="1.1" viewBox="0 0 720 360" width="100%" xml:space="preserve" xmlns="http://www.w3.org/2000/svg" xmlns:vectornator="http://vectornator.io" xmlns:xlink="http://www.w3.org/1999/xlink">
<defs/>
<g id="eye" vectornator:layerName="eye">
<path d="M620.608 100.675L549.081 125.848L404.332 118.044L543.151 140.518L551.955 137.111L631.248 112.156L620.608 100.675Z" fill="#00aaff" fill-rule="nonzero" opacity="1" stroke="none" vectornator:layerName="path 1"/>
</g>
<g id="nose" vectornator:layerName="nose">
<path d="M82.0052 110.439L27.9605 138.356L50.9974 189.603L58.9782 181.651L54.3689 139.408L82.0052 110.439Z" fill="#00aaff" fill-rule="nonzero" opacity="1" stroke="none" vectornator:layerName="path"/>
</g>
<g id="mouth" vectornator:layerName="mouth">
<path d="M502.368 275.373L392.732 273.817L293.193 303.245L156.768 270.756L79.7516 308.086L25.1097 294.386L55.4908 331.337L102.331 338.727L169.353 310.32L284.332 336.393L393.638 301.294L540.581 307.475L566.042 272.456L619.507 196.234L533.812 260.533L502.368 275.373Z" fill="#00aaff" fill-rule="nonzero" opacity="1" stroke="none" vectornator:layerName="path"/>
</g>
</svg>
