<?xml version="1.0" encoding="UTF-8" standalone="no"?>
<!DOCTYPE svg PUBLIC "-//W3C//DTD SVG 1.1//EN" "http://www.w3.org/Graphics/SVG/1.1/DTD/svg11.dtd">
<!-- Created with Vectornator (http://vectornator.io/) -->
<svg height="100%" stroke-miterlimit="10" style="fill-rule:nonzero;clip-rule:evenodd;stroke-linecap:round;stroke-linejoin:round;" version="1.1" viewBox="0 0 720 360" width="100%" xml:space="preserve" xmlns="http://www.w3.org/2000/svg" xmlns:vectornator="http://vectornator.io" xmlns:xlink="http://www.w3.org/1999/xlink">
<defs/>
<g id="eye" vectornator:layerName="eye">
<path d="M635.133 62.0933L669.026 7.43163L478.562 86.4201L642.703 158.794L621.127 122.623L543.037 89.2727L635.133 62.0933Z" fill="#00aaff" fill-rule="nonzero" opacity="1" stroke="none" vectornator:layerName="path"/>
</g>
<g id="nose" vectornator:layerName="nose">
<path d="M85.745 53.5016L27.9605 89.0054L60.4127 151.388L69.1576 135.211L71.2434 117.47L77.8302 83.972L66.4841 87.1982L58.7769 113.791L52.6335 94.1045L89.6944 78.6289L85.745 53.5016Z" fill="#00aaff" fill-rule="nonzero" opacity="1" stroke="none" vectornator:layerName="path"/>
</g>
<g id="mouth" vectornator:layerName="mouth">
<path d="M502.368 275.373L392.732 273.817L293.193 303.245L156.768 270.756L79.7516 308.086L25.1097 294.386L55.4908 331.337L102.331 338.727L169.353 310.32L284.332 336.393L393.638 301.294L540.581 307.475L566.042 272.456L619.507 196.234L533.812 260.533L502.368 275.373Z" fill="#00aaff" fill-rule="nonzero" opacity="1" stroke="none" vectornator:layerName="path"/>
</g>
</svg>
