<?xml version="1.0" encoding="UTF-8" standalone="no"?>
<!DOCTYPE svg PUBLIC "-//W3C//DTD SVG 1.1//EN" "http://www.w3.org/Graphics/SVG/1.1/DTD/svg11.dtd">
<!-- Created with Vectornator (http://vectornator.io/) -->
<svg height="360.0pt" stroke-miterlimit="10" style="fill-rule:nonzero;clip-rule:evenodd;stroke-linecap:round;stroke-linejoin:round;" version="1.1" viewBox="0 0 720 360" width="720.0pt" xml:space="preserve" xmlns="http://www.w3.org/2000/svg" xmlns:vectornator="http://vectornator.io" xmlns:xlink="http://www.w3.org/1999/xlink">
<defs/>
<g id="eye" vectornator:layerName="eye">
<path d="M598.1 122.823L514.175 83.1262L592.707 50.4269L631.319 32.3261L593.368 11.1768L432.078 81.55L428.262 86.403L431.001 90.1808L596.953 159.944L634.308 142.482L598.1 122.823Z" fill="#00aaff" fill-rule="nonzero" opacity="1" stroke="none" vectornator:layerName="path"/>
</g>
<g id="nose" vectornator:layerName="nose">
<path d="M85.745 53.5016L27.9605 89.0054L60.4127 151.388L69.1576 135.211L71.2434 117.47L77.8302 83.972L66.4841 87.1982L58.7769 113.791L52.6335 94.1045L89.6944 78.6289L85.745 53.5016Z" fill="#00aaff" fill-rule="nonzero" opacity="1" stroke="none" vectornator:layerName="path"/>
</g>
<g id="mouth" vectornator:layerName="mouth">
<path d="M502.368 275.373L451.989 307.51L295.413 275.843L183.759 310.986L95.9085 301.631L31.7315 268.135L52.4004 299.854L102.331 338.727L169.497 331.924L295.433 301.863L452.837 326.206L588.057 307.475L614.933 278.884L569.123 199.297L573.774 273.184L502.368 275.373Z" fill="#00aaff" fill-rule="nonzero" opacity="1" stroke="none" vectornator:layerName="path"/>
</g>
</svg>
